<?xml version="1.0" standalone="no"?>
<!DOCTYPE svg PUBLIC "-//W3C//DTD SVG 20010904//EN"
 "http://www.w3.org/TR/2001/REC-SVG-20010904/DTD/svg10.dtd">
<svg version="1.0" xmlns="http://www.w3.org/2000/svg"
 width="1280.000000pt" height="1168.000000pt" viewBox="0 0 1280.000000 1168.000000"
 preserveAspectRatio="xMidYMid meet">
<g transform="translate(0.000000,1168.000000) scale(0.100000,-0.100000)"
fill="#ffffff" stroke="#000000" stroke-width="100">
<path d="M12639 11676 c-3 -3 -45 -10 -94 -16 -257 -32 -459 -96 -738 -236
-154 -77 -294 -161 -657 -394 -151 -98 -381 -240 -510 -317 -1198 -713 -1309
-785 -1620 -1038 -332 -272 -357 -289 -853 -598 -340 -212 -407 -267 -772
-633 -176 -176 -361 -357 -412 -402 -196 -173 -387 -297 -535 -347 -105 -35
-217 -37 -368 -6 -110 22 -232 27 -273 12 -13 -5 -28 -6 -33 -3 -6 4 -50 66
-99 137 -310 455 -515 665 -785 800 -203 102 -479 147 -774 126 -240 -17 -406
-50 -852 -169 -264 -71 -496 -125 -590 -137 -40 -5 -137 10 -495 79 -826 159
-1025 185 -1466 193 -301 5 -514 -4 -588 -26 -17 -5 -24 -10 -18 -10 149 -10
805 -117 1093 -177 377 -79 585 -135 1055 -285 363 -116 459 -151 580 -212 86
-44 114 -65 201 -152 159 -158 277 -357 403 -680 34 -88 81 -207 103 -265 117
-301 311 -620 579 -955 162 -202 224 -302 404 -655 220 -431 263 -498 547
-863 78 -100 172 -229 210 -287 81 -122 173 -302 166 -322 -3 -7 -66 -50 -139
-95 -697 -424 -1105 -885 -1298 -1468 -27 -82 -53 -168 -57 -189 l-7 -39 47 6
c25 4 88 24 139 46 122 51 177 60 177 28 0 -5 -26 -51 -59 -101 -87 -136 -171
-291 -259 -481 -100 -214 -99 -212 -70 -221 45 -14 207 -7 380 16 138 19 181
21 190 12 15 -15 -7 -69 -117 -292 -96 -194 -118 -248 -145 -354 -31 -123 -30
-126 33 -126 130 0 281 68 503 225 174 124 249 169 269 161 11 -4 8 -21 -17
-88 -99 -267 -132 -440 -125 -653 2 -82 8 -158 12 -169 7 -15 15 -17 51 -12
24 3 70 17 104 30 110 45 192 109 342 269 227 241 307 312 327 291 5 -5 11
-121 14 -259 3 -179 9 -265 19 -303 9 -29 18 -55 21 -59 12 -11 63 30 159 129
83 86 100 99 125 96 28 -3 28 -3 28 -78 1 -97 2 -102 21 -98 9 2 30 38 50 88
50 123 168 355 259 505 101 168 220 343 479 700 116 160 257 360 315 445 57
85 108 159 112 164 5 6 17 2 29 -9 18 -16 21 -16 44 -1 42 27 125 161 289 466
58 107 111 195 119 195 9 0 12 -12 10 -42 -7 -79 16 -44 62 95 146 444 205
860 193 1361 -9 354 -50 634 -137 931 l-39 135 32 55 c49 84 197 227 312 302
114 75 211 124 474 244 406 186 582 305 707 480 37 52 62 73 161 134 269 167
449 306 648 501 124 121 145 137 180 142 80 9 156 51 224 124 77 82 400 447
421 475 32 45 225 208 390 331 96 72 218 162 269 201 127 95 289 252 365 353
67 89 145 227 134 238 -12 12 -1002 -138 -1184 -180 -85 -20 -118 -20 -111 0
4 8 42 65 86 127 136 193 197 325 266 577 l37 135 92 87 c118 112 165 204 166
324 0 39 5 45 90 120 50 44 138 132 195 195 160 178 535 640 555 685 10 22 23
76 29 120 14 103 54 184 169 340 108 148 137 197 168 287 27 81 29 107 12 155
-12 33 -12 33 -78 33 -37 0 -69 -2 -71 -4z"/>
</g>
</svg>
